<mxfile host="app.diagrams.net" modified="2024-03-20T18:56:15.216Z" agent="Mozilla/5.0 (Macintosh; Intel Mac OS X 10_15_7) AppleWebKit/605.1.15 (KHTML, like Gecko) Version/17.0 Safari/605.1.15" etag="DWM7W3yQ5FN_gbH6YmL7" version="24.0.1" type="github">
  <diagram name="Page-1" id="ntdhMumOz50RIHo8f7c1">
    <mxGraphModel dx="979" dy="811" grid="1" gridSize="10" guides="1" tooltips="1" connect="1" arrows="1" fold="1" page="1" pageScale="1" pageWidth="850" pageHeight="1400" math="0" shadow="0">
      <root>
        <mxCell id="0" />
        <mxCell id="1" parent="0" />
        <mxCell id="DIaVqEg2Kyk234NQ28uX-6" style="edgeStyle=orthogonalEdgeStyle;rounded=0;orthogonalLoop=1;jettySize=auto;html=1;exitX=1;exitY=0.25;exitDx=0;exitDy=0;entryX=0;entryY=0.25;entryDx=0;entryDy=0;" edge="1" parent="1" source="DIaVqEg2Kyk234NQ28uX-1" target="DIaVqEg2Kyk234NQ28uX-2">
          <mxGeometry relative="1" as="geometry" />
        </mxCell>
        <mxCell id="DIaVqEg2Kyk234NQ28uX-7" value="Customer Order" style="edgeLabel;html=1;align=center;verticalAlign=middle;resizable=0;points=[];" vertex="1" connectable="0" parent="DIaVqEg2Kyk234NQ28uX-6">
          <mxGeometry x="0.0125" relative="1" as="geometry">
            <mxPoint as="offset" />
          </mxGeometry>
        </mxCell>
        <mxCell id="DIaVqEg2Kyk234NQ28uX-10" style="edgeStyle=orthogonalEdgeStyle;rounded=0;orthogonalLoop=1;jettySize=auto;html=1;exitX=1;exitY=0.75;exitDx=0;exitDy=0;entryX=0;entryY=0.75;entryDx=0;entryDy=0;" edge="1" parent="1" source="DIaVqEg2Kyk234NQ28uX-1" target="DIaVqEg2Kyk234NQ28uX-2">
          <mxGeometry relative="1" as="geometry" />
        </mxCell>
        <mxCell id="DIaVqEg2Kyk234NQ28uX-12" value="Art Approval/Denial" style="edgeLabel;html=1;align=center;verticalAlign=middle;resizable=0;points=[];" vertex="1" connectable="0" parent="DIaVqEg2Kyk234NQ28uX-10">
          <mxGeometry x="0.0125" y="4" relative="1" as="geometry">
            <mxPoint as="offset" />
          </mxGeometry>
        </mxCell>
        <mxCell id="DIaVqEg2Kyk234NQ28uX-1" value="Customer" style="whiteSpace=wrap;html=1;aspect=fixed;" vertex="1" parent="1">
          <mxGeometry x="110" y="180" width="120" height="120" as="geometry" />
        </mxCell>
        <mxCell id="DIaVqEg2Kyk234NQ28uX-8" style="edgeStyle=orthogonalEdgeStyle;rounded=0;orthogonalLoop=1;jettySize=auto;html=1;exitX=0;exitY=0.5;exitDx=0;exitDy=0;entryX=1;entryY=0.5;entryDx=0;entryDy=0;" edge="1" parent="1" source="DIaVqEg2Kyk234NQ28uX-2" target="DIaVqEg2Kyk234NQ28uX-1">
          <mxGeometry relative="1" as="geometry" />
        </mxCell>
        <mxCell id="DIaVqEg2Kyk234NQ28uX-9" value="Artwork Approval" style="edgeLabel;html=1;align=center;verticalAlign=middle;resizable=0;points=[];" vertex="1" connectable="0" parent="DIaVqEg2Kyk234NQ28uX-8">
          <mxGeometry x="-0.0304" y="-2" relative="1" as="geometry">
            <mxPoint as="offset" />
          </mxGeometry>
        </mxCell>
        <mxCell id="DIaVqEg2Kyk234NQ28uX-2" value="Lakeshore&amp;nbsp;&lt;div&gt;OrderProcessing&lt;/div&gt;" style="rounded=1;whiteSpace=wrap;html=1;absoluteArcSize=1;arcSize=14;strokeWidth=2;" vertex="1" parent="1">
          <mxGeometry x="390" y="180" width="120" height="120" as="geometry" />
        </mxCell>
        <mxCell id="DIaVqEg2Kyk234NQ28uX-3" value="Advantage&amp;nbsp;&lt;div&gt;Specialties&lt;/div&gt;" style="whiteSpace=wrap;html=1;aspect=fixed;" vertex="1" parent="1">
          <mxGeometry x="670" y="180" width="120" height="120" as="geometry" />
        </mxCell>
        <mxCell id="DIaVqEg2Kyk234NQ28uX-4" value="Context Current System&amp;nbsp;&lt;div&gt;(Lakeshore)&lt;/div&gt;" style="text;html=1;align=center;verticalAlign=middle;resizable=0;points=[];autosize=1;strokeColor=none;fillColor=none;" vertex="1" parent="1">
          <mxGeometry x="350" y="25" width="150" height="40" as="geometry" />
        </mxCell>
      </root>
    </mxGraphModel>
  </diagram>
</mxfile>
